<svg width="67" height="101" viewBox="0 0 67 101"
  xmlns="http://www.w3.org/2000/svg">
  <path d="M57.15 10.13c-13.1-12.2-34.2-12.2-47.3 0-13.1 12.2-13.1 31.94 0 44.14 0 0 23.65 21.63 23.65 46.63 0-25 23.65-46.63 23.65-46.63 13.1-12.1 13.1-31.94 0-44.14Z" fill="#fff"/>
  <path d="M47.71 46.14c-.6-3.28.1-6.85 0-10.22-.1-3.77-.7-7.44-.7-11.11 0-2.98.5-6.15-.52-9.03.1-.3.1-.7.2-1 .31-1.48-4.66-.68-5.37.6-.51.4-.71.9-.51 1.3.1.1.1.2.1.4-.91 4.46-2.23 8.72-3.76 13.09-.6 1.68-1.21 3.27-1.82 4.86a67.03 67.03 0 0 1-2.34-4.67c-1.93-4.76-3.75-9.62-6.09-14.18.3-2.08-4.57-1.89-5.48 0-1.12 2.38-1.02 4.76-.61 7.24.4 2.88.5 5.66.5 8.53.11 5.56.52 11.01.62 16.57-.51.6-.61 1.19-.1 1.88.2.3.5.5.8.8 1.33.99 4.98.2 4.98-1.79 0-5.75-.4-11.4-.6-17.16v-1.69c.1.2.2.4.2.6.91 2.18 1.82 4.36 3.14 6.45 1.22 2.08 1.83 4.26 2.54 6.45-.3.3-.4.59-.3.99-.1.3.1.4.4.5.92.79 2.64.39 3.56 0l1.21-.6c.51-.3 1.22-1 1.02-1.59 0-.1-.1-.3-.1-.4.7-1.78 1.01-3.57 1.42-5.45.4-1.99 1.12-3.87 1.83-5.76.1.9.1 1.69.2 2.58.3 3.57 0 7.05 0 10.62 0 1.19.1 2.28.3 3.37.1.5.51 2.48.4 2.58-.9.8-.6 1.79.52 1.98 1.32.3 2.94-.1 3.96-.99 1.62-1.39.8-3.77.4-5.75Z" fill="#6BC6B3"/>
</svg>
